<svg width="26" height="26" fill="none" xmlns="http://www.w3.org/2000/svg"><path d="M13 0C5.835 0 0 5.835 0 13s5.835 13 13 13 13-5.835 13-13S20.165 0 13 0zm-1.718.778c-.876.648-1.816 1.75-2.659 3.145-.324.55-.745 1.329-1.134 2.269H2.723C4.636 3.307 7.716 1.264 11.282.778zM2.302 6.84h4.927a18.279 18.279 0 00-1.134 5.836H.68c.032-2.108.648-4.118 1.62-5.836zM.68 13.324h5.446a16.835 16.835 0 001.135 5.836h-4.96C1.329 17.44.713 15.43.68 13.323zm2.042 6.484H7.49c1.037 2.464 2.464 4.409 3.76 5.414-3.566-.519-6.613-2.561-8.526-5.414zm9.953 5.479c-1.2-.325-3.177-2.4-4.506-5.48h4.506v5.48zm0-6.128H7.91a17.305 17.305 0 01-1.135-5.835h5.9v5.835zm0-6.483H6.743c.033-2.14.519-4.118 1.167-5.836h4.766v5.835zm0-6.484H8.202c1.33-3.048 3.274-5.09 4.474-5.414v5.414zm.648-5.414c1.2.324 3.145 2.366 4.474 5.414h-4.474V.778zm0 6.062h4.766a16.54 16.54 0 011.167 5.835h-5.933V6.84zm0 6.484h5.933a17.29 17.29 0 01-1.135 5.835h-4.798v-5.835zm0 6.484h4.507c-1.33 3.08-3.307 5.154-4.507 5.478v-5.478zm1.492 5.414c.875-.681 1.783-1.75 2.56-3.08a22.03 22.03 0 001.168-2.334h4.733a12.415 12.415 0 01-8.461 5.414zm8.882-6.063h-4.895a17.641 17.641 0 001.102-5.835h5.414c-.032 2.107-.648 4.117-1.62 5.836zm1.621-6.483h-5.414c-.032-2.108-.486-4.085-1.134-5.836h4.927c.973 1.719 1.589 3.728 1.621 5.836zM18.51 6.192C17.474 3.695 15.983 1.75 14.686.778a12.35 12.35 0 018.623 5.414h-4.798z" fill="#fff"/></svg>