<svg width="175" height="34" fill="none" xmlns="http://www.w3.org/2000/svg"><path d="M8.399 17.553L3.545 28.466H0l5.333-11.669c-1.25-.639-2.253-1.569-3.023-2.804-.77-1.235-1.148-2.906-1.148-5.042 0-1.482.218-2.79.654-3.923.436-1.134 1.032-2.064 1.787-2.805A7.312 7.312 0 016.248.553C7.251.173 8.326 0 9.43 0h4.578v28.48h-3.066V17.568H8.398v-.015zm2.543-15.01H9.313a5.06 5.06 0 00-1.787.334 4.168 4.168 0 00-1.555 1.075c-.45.494-.814 1.148-1.09 1.962-.276.814-.421 1.816-.421 3.022 0 1.148.13 2.107.378 2.877.247.77.595 1.395 1.031 1.875.436.48.96.814 1.555 1.017.596.204 1.22.305 1.889.305h1.627V2.543zm17.842 5.856v20.067h-3.066v-8.995h-4.62v8.995h-3.11V8.399h3.11v8.53h4.62v-8.53h3.066zm15.97 24.005h-2.79v-3.938h-8.602v3.938h-2.79v-6.495h1.235a18.3 18.3 0 001.075-3.531 42.95 42.95 0 00.61-3.982c.146-1.366.233-2.76.277-4.185.043-1.424.058-2.79.058-4.126V8.399h9.314v17.524h1.598v6.48h.015zm-4.665-21.462h-3.458v.363c0 1.06-.014 2.223-.058 3.473a58.04 58.04 0 01-.262 3.836 47.784 47.784 0 01-.552 3.836 17.326 17.326 0 01-1.002 3.473h5.332V10.942zm18.164 16.173c-.64.508-1.366.9-2.194 1.191-.829.29-1.744.436-2.747.436-2.078 0-3.705-.8-4.896-2.412-1.192-1.613-1.788-3.967-1.788-7.062 0-1.613.116-3.11.334-4.46.233-1.352.582-2.53 1.076-3.532.494-1.002 1.119-1.773 1.889-2.325.77-.552 1.685-.843 2.746-.843.828 0 1.584.16 2.267.494.683.335 1.279.872 1.758 1.613.48.741.843 1.7 1.119 2.892.261 1.177.392 2.616.392 4.316v1.714h-8.37c0 2.282.306 4.01.93 5.173.625 1.163 1.555 1.758 2.805 1.758.872 0 1.656-.145 2.325-.465.683-.305 1.22-.61 1.613-.9l.74 2.412zm-5.58-16.45c-.959 0-1.627.538-2.034 1.614-.407 1.075-.654 2.514-.756 4.315h5.144c0-.842-.044-1.642-.116-2.368a8.838 8.838 0 00-.378-1.89c-.174-.537-.407-.944-.712-1.234-.305-.29-.698-.436-1.148-.436zm11.828 7.804v9.997h-3.11V8.399h3.11v9.285L69.325 8.4h3.153l-4.984 9.445L73.19 28.48h-3.385L64.5 18.47zm15.97 10.273c-2.151 0-3.837-.857-5.057-2.572-1.221-1.715-1.831-4.301-1.831-7.745 0-1.57.145-2.993.465-4.257.305-1.279.755-2.354 1.351-3.24.596-.887 1.337-1.584 2.223-2.079.887-.494 1.918-.74 3.08-.74.902 0 1.628.101 2.195.305a7.69 7.69 0 011.511.74l-.436 2.95a7.078 7.078 0 00-1.496-1.002 3.94 3.94 0 00-1.817-.436c-1.119 0-2.034.625-2.746 1.889-.712 1.25-1.075 3.168-1.075 5.725 0 2.528.305 4.49.9 5.87.596 1.38 1.54 2.064 2.805 2.064.77 0 1.438-.131 1.99-.393.553-.261 1.018-.552 1.396-.886l.712 2.31a7.017 7.017 0 01-1.788 1.09c-.653.276-1.453.407-2.383.407zm25.297-.276H93.577l-.276 4.737h-1.555v-6.321h.843c.683-.581 1.22-1.627 1.598-3.11.378-1.482.669-3.255.872-5.303.218-2.122.363-4.737.436-7.832.072-3.095.145-6.64.203-10.622h9.954v26.881h1.947v6.336h-1.555l-.276-4.766zm-2.121-26.882h-6.176c-.058 3.647-.13 6.858-.233 9.605-.101 2.76-.232 5.173-.392 7.25-.189 2.166-.45 3.939-.77 5.333-.334 1.395-.77 2.427-1.293 3.096h8.878V1.584h-.014zm7.777 17.161c.058 2.775.435 4.882 1.148 6.335.712 1.453 1.801 2.18 3.269 2.18.668 0 1.25-.102 1.758-.32.509-.218.93-.48 1.279-.77.392-.29.741-.668 1.032-1.09l.595 1.511c-.319.45-.697.843-1.148 1.148a6.008 6.008 0 01-1.467.77c-.581.218-1.279.335-2.078.335-2.122 0-3.691-.916-4.694-2.747-1.002-1.83-1.511-4.388-1.511-7.686 0-1.642.146-3.11.436-4.403.291-1.293.698-2.383 1.221-3.284.523-.901 1.133-1.584 1.845-2.049a4.217 4.217 0 012.354-.697 4.25 4.25 0 012.354.682c.683.45 1.264 1.134 1.715 2.035.45.9.77 2.02.959 3.37.189 1.338.203 2.907.043 4.68h-9.11zm4.025-9.155c-1.061 0-1.977.654-2.732 1.962-.756 1.308-1.177 3.211-1.25 5.725h7.295c.159-2.673-.102-4.62-.771-5.841-.668-1.22-1.54-1.846-2.542-1.846zm17.318 9.285h-6.844v9.605h-1.874V8.398h1.874v8.879h6.844V8.398h1.875v20.067h-1.875v-9.59zm6.293-10.477h1.875v7.44h1.467c1.918 0 3.444.523 4.578 1.555 1.148 1.032 1.714 2.601 1.714 4.693 0 2.122-.596 3.72-1.787 4.781-1.192 1.06-2.732 1.598-4.621 1.598h-3.226V8.398zm1.875 8.922v9.678h1.191c1.41 0 2.543-.378 3.43-1.134.886-.755 1.307-1.99 1.307-3.72 0-1.7-.392-2.92-1.191-3.69-.799-.756-1.918-1.134-3.342-1.134h-1.395zm12.814-7.338v18.483h-1.831V8.398h8.486v1.599h-6.655v-.015zm18.876 4.506c0-.538.014-1.018.043-1.453.03-.436.073-.872.117-1.294h-.117c-.13.45-.29.887-.479 1.294-.189.406-.392.842-.596 1.293l-6.524 14.138h-1.598V8.4h1.758v13.935c0 .538-.015 1.017-.044 1.468-.029.45-.073.9-.116 1.351h.116c.131-.45.291-.9.48-1.337.189-.435.377-.886.595-1.336l6.525-14.095h1.627v20.067h-1.787V14.488z" fill="#fff"/></svg>