<svg width="32" height="33" fill="none" xmlns="http://www.w3.org/2000/svg"><path d="M31.022 17.661h-2.775v-9.83A6.843 6.843 0 0021.463.996a3.76 3.76 0 00-5.207.105.393.393 0 000 .554l4.762 4.765a.389.389 0 00.555 0 3.766 3.766 0 00.562-4.598 6.063 6.063 0 015.33 6.01v9.83H12.138a1.217 1.217 0 00-1.215-1.216H6.167a1.216 1.216 0 00-1.216 1.216H.391a.39.39 0 100 .782h1.006v5.225a6.354 6.354 0 006.348 6.348h2.137l-1.296 1.73v.001a.39.39 0 00.626.468l1.585-2.117a.346.346 0 00.046-.08h9.728a.348.348 0 00.046.08l1.586 2.118a.392.392 0 00.705-.177.39.39 0 00-.08-.292l-1.295-1.73h2.136a6.355 6.355 0 006.348-6.349v-5.226h1.006a.39.39 0 000-.782h-.001zM21.277 5.573l-4.175-4.174a2.977 2.977 0 014.175 4.174zM5.737 17.66c0-.24.194-.434.434-.434h4.756c.24 0 .434.195.434.434v6.07c0 .24-.194.433-.434.434H6.171a.434.434 0 01-.434-.434v-6.07zm23.5 6.007a5.572 5.572 0 01-5.566 5.567H7.745a5.572 5.572 0 01-5.566-5.567v-5.225h2.775v5.288a1.218 1.218 0 001.215 1.215h4.757a1.216 1.216 0 001.213-1.215v-5.288h17.095l.003 5.225z" fill="#fff"/></svg>