<svg width="32" height="32" fill="none" xmlns="http://www.w3.org/2000/svg"><path d="M30.913 1H1.587A.587.587 0 001 1.587v29.326a.586.586 0 00.587.587h17.355a.587.587 0 00.587-.587V20.895a.587.587 0 00-1.174 0v9.432H2.174v-8.845h11.08a.587.587 0 00.586-.587v-5.501a.586.586 0 10-1.173 0v4.915H2.173v-9.924h11.08a.587.587 0 00.586-.587V2.173h6.347v4.059a.587.587 0 001.173 0V2.173h8.968v8.728h-9.555a.587.587 0 000 1.173h9.555v8.211H24.07a.587.587 0 000 1.174h6.258v8.868h-5.279a.587.587 0 000 1.173h5.866a.587.587 0 00.586-.587V1.587A.587.587 0 0030.913 1zM12.666 9.212H2.173V2.173h10.493v7.039z" fill="#fff" stroke="#27282C" stroke-width=".5"/></svg>