<svg width="30" height="30" fill="none" xmlns="http://www.w3.org/2000/svg"><path d="M.375 25.73H3.06v3.894a.375.375 0 10.75 0v-3.893h22.382v3.893a.375.375 0 10.75 0v-3.893h2.683a.375.375 0 00.376-.375V18.11a6.125 6.125 0 00-.811-3.05V2.548A2.55 2.55 0 0026.64 0H3.359A2.551 2.551 0 00.81 2.548v12.386A6.133 6.133 0 000 17.988v7.368c0 .207.168.374.375.374zm.375-.75v-4.124h28.5v4.125H.75zm.81-22.432A1.8 1.8 0 013.36.75h23.28a1.8 1.8 0 011.798 1.798v11.478a6.103 6.103 0 00-2.876-1.812V8.035c0-.934-.76-1.693-1.694-1.693h-7.55c-.536 0-1.008.254-1.319.644a1.684 1.684 0 00-1.319-.644H6.13c-.934 0-1.694.76-1.694 1.693v4.056A6.08 6.08 0 001.56 13.9V2.548zm13.065 8.566a52.63 52.63 0 00-9.439.811v-3.89c0-.52.424-.943.944-.943h7.55c.521 0 .944.423.944.943v3.08zm10.188.933a58.116 58.116 0 00-9.438-.923V8.035c0-.52.423-.943.943-.943h7.551c.52 0 .944.423.944.943v4.012zm-19.68.649c4.33-.802 11.265-1.432 19.708.117a5.382 5.382 0 014.408 5.298v1.995H.75v-2.118a5.373 5.373 0 014.385-5.292z" fill="#fff"/></svg>