<svg width="47" height="30" fill="none" xmlns="http://www.w3.org/2000/svg"><path d="M35.696 28.973a.874.874 0 01-.874-.681 11.433 11.433 0 00-22.326 0 .874.874 0 11-1.705-.385 13.181 13.181 0 0125.736 0 .874.874 0 01-.604 1.066h-.227zM23.684 14.497a6.749 6.749 0 110-13.497 6.749 6.749 0 010 13.497zm0-11.749a4.998 4.998 0 00-5 5 5 5 0 1010 0 5.01 5.01 0 00-5-5h0zM1.877 25.399h-.192a.874.874 0 01-.665-1.04 9.724 9.724 0 019.433-7.623 9.554 9.554 0 014.003.874.876.876 0 01-.023 1.658.874.874 0 01-.702-.076 7.817 7.817 0 00-3.278-.708 7.973 7.973 0 00-7.728 6.207.874.874 0 01-.848.708h0z" fill="#fff" stroke="#27282C" stroke-width=".933"/><path d="M10.88 13.86a5.067 5.067 0 01-5.026-5.102 5.07 5.07 0 115.026 5.102h0zm0-8.383a3.321 3.321 0 100 6.642 3.321 3.321 0 000-6.642zm34.611 19.921a.875.875 0 01-.874-.681 7.969 7.969 0 00-7.702-6.233 7.815 7.815 0 00-3.278.708.875.875 0 11-.725-1.582 9.554 9.554 0 014.003-.874 9.716 9.716 0 019.432 7.605.874.874 0 01-.664 1.04l-.192.017zM36.487 13.86a5.07 5.07 0 11-.018-10.14 5.07 5.07 0 01.018 10.14h0zm0-8.383a3.32 3.32 0 00-2.361 5.668A3.323 3.323 0 0039.8 8.799a3.322 3.322 0 00-3.313-3.322h0z" fill="#fff" stroke="#27282C" stroke-width=".933"/></svg>