<svg width="32" height="31" fill="none" xmlns="http://www.w3.org/2000/svg"><path d="M31.323 10.72l-.528-.527a3.523 3.523 0 00-4.973 0 .44.44 0 10.615.63l.008-.008a2.643 2.643 0 013.728 0l.527.528a.44.44 0 00.623-.008.452.452 0 000-.615h0zM21.72 1.125a.44.44 0 00-.623.623l.527.527a2.644 2.644 0 010 3.728.447.447 0 000 .623.447.447 0 00.623 0 3.523 3.523 0 000-4.973l-.527-.528zm3.712 6.504l3.377-3.376a.44.44 0 10-.616-.63L24.81 7.006a.447.447 0 000 .623.433.433 0 00.622 0h0zM11.466 8.838a.447.447 0 00.623 0l.578-.579.579.579a.44.44 0 00.622-.623l-.578-.578.579-.579a.44.44 0 00-.623-.623l-.579.579-.578-.579a.44.44 0 00-.623.623l.579.579-.579.578a.447.447 0 000 .623h0zm14.274 9.089l.578-.579a.447.447 0 000-.622.447.447 0 00-.623 0l-.579.578-.578-.578a.44.44 0 00-.623.622l.579.579-.579.578a.44.44 0 00.623.623l.578-.579.58.579a.447.447 0 00.622 0 .447.447 0 000-.623l-.579-.578zm-3.405-6.152l-2.402-2.403a.447.447 0 00-.623 0l-1.772 1.78-1.392 1.392c-.747.747-1.194.96-2.19 1.42L9.16 16.243a13.786 13.786 0 00-3.852 2.725l-2.373 2.38L1.46 22.82a1.6 1.6 0 000 2.248l5.157 5.156a1.607 1.607 0 002.27.037l3.83-3.83a13.938 13.938 0 002.725-3.853l2.278-4.797c.469-.997.71-1.473 1.42-2.19l3.201-3.201a.431.431 0 00-.007-.615h0zM8.273 29.624a.736.736 0 01-1.033-.015l-5.163-5.163a.73.73 0 010-1.011L3.24 22.27l6.19 6.19-1.158 1.164zm1.78-1.78l-6.19-6.189 1.751-1.75 6.167 6.218-1.728 1.721zm8.466-12.876c-.813.813-1.106 1.4-1.596 2.432l-2.278 4.797a13.306 13.306 0 01-2.241 3.296L6.25 19.29a13.007 13.007 0 013.296-2.249l4.798-2.278c1.018-.476 1.582-.747 2.431-1.596l1.084-1.084 1.78 1.78-1.12 1.105zm1.729-1.728l-1.78-1.78 1.157-1.157 1.78 1.78-1.157 1.157zm-14.245-.975a1.39 1.39 0 10.001-2.781 1.39 1.39 0 00-.001 2.781zm0-1.904a.51.51 0 01.513.513.51.51 0 01-.513.513.51.51 0 01-.513-.513c0-.286.235-.513.513-.513zm15.402 9.902a1.39 1.39 0 10-.001 2.781 1.39 1.39 0 00.001-2.781zm0 1.904a.51.51 0 01-.513-.513.51.51 0 01.513-.512.51.51 0 01.513.512.51.51 0 01-.513.513zm5.845-10.399a1.39 1.39 0 100 2.781 1.39 1.39 0 000-2.781zm0 1.904a.51.51 0 01-.512-.513.51.51 0 01.513-.513.51.51 0 01.513.513.51.51 0 01-.513.513zm-9.917-9.661a1.39 1.39 0 10-1.392-1.392 1.4 1.4 0 001.392 1.392zm0-1.904a.51.51 0 01.513.512.51.51 0 01-.513.513.51.51 0 01-.513-.513.524.524 0 01.513-.512z" fill="#fff" stroke="#27282C" stroke-width=".3"/></svg>