<svg width="35" height="33" fill="none" xmlns="http://www.w3.org/2000/svg"><path d="M34.129 11.887h-9.75V3.565a.297.297 0 00-.295-.296h-3.336V.296A.297.297 0 0020.452 0h-6.465a.297.297 0 00-.295.296v2.973h-3.336a.297.297 0 00-.296.296v8.322H.296a.297.297 0 00-.296.295v19.742c0 .163.133.296.296.296h33.84a.297.297 0 00.295-.296V12.183a.308.308 0 00-.302-.296zM14.284.592h5.873v2.677h-5.873V.592zm-4.231 31.036H.585v-19.15h9.468v19.15zm.599-27.767h13.137v8.255c-.008.022-.008.044-.008.066v19.446h-3.24v-9.23a.297.297 0 00-.295-.296h-6.043a.297.297 0 00-.296.296v9.23h-3.248V3.863h-.007zm3.839 27.767v-8.935h5.459v8.935h-5.46zm19.343 0H24.38v-19.15h9.46v19.15h-.008z" fill="#fff"/></svg>