<svg width="32" height="32" fill="none" xmlns="http://www.w3.org/2000/svg"><path d="M2.406 23.5V6.625a.469.469 0 000-.938H1.47a.469.469 0 000 .938V23.5a.469.469 0 000 .938h.937a.469.469 0 000-.938zm14.063 5.625a.47.47 0 00-.427.281l-11.76-4.36v-.14a.469.469 0 10-.938 0v.938a.469.469 0 00.896.187L16 30.391v.14a.469.469 0 00.938 0v-.937a.469.469 0 00-.469-.469h0zm14.062-7.5a.469.469 0 00.47-.469v-15a.469.469 0 00-.312-.441L17.564 1.027a.47.47 0 00-.315 0L4.124 5.715a.469.469 0 00-.311.441v16.875a.47.47 0 00.31.442L17.25 28.16a.468.468 0 00.315 0l13.125-4.687a.469.469 0 000-.883l-12.814-4.574V3.343a.469.469 0 00-.937 0v14.673L4.75 22.366V6.486l12.656-4.52 12.657 4.52v14.67a.469.469 0 00.468.47v-.001zm-13.125 5.596l-5.168-1.846 5.168-1.846 5.169 1.846-5.169 1.846zm6.563-2.344L18.8 23.031l5.169-1.845 5.168 1.845-5.168 1.846zm-6.563-6.035l5.169 1.846-5.169 1.846-5.168-1.846 5.168-1.846zm-6.562 2.344l5.168 1.846-5.168 1.846-5.169-1.846 5.169-1.846z" fill="#fff" stroke="#27282C" stroke-width=".2"/></svg>