<svg width="40" height="32" fill="none" xmlns="http://www.w3.org/2000/svg"><path d="M38.436 1H1.462A.463.463 0 001 1.462v29.58c0 .255.207.461.462.462h36.974a.463.463 0 00.462-.462V1.462A.463.463 0 0038.436 1zm-.462 29.58H1.924V1.924h36.05v28.654z" fill="#fff" stroke="#27282C" stroke-width=".3"/><path d="M5.16 27.806h29.58a.463.463 0 00.461-.462V5.159a.463.463 0 00-.462-.462H5.16a.463.463 0 00-.462.462v22.185c0 .255.207.462.462.462zm29.116-.924H20.411V5.622h13.865v21.26zM5.622 5.622h13.865v21.26H5.622V5.622z" fill="#fff" stroke="#27282C" stroke-width=".3"/><path d="M10.706 14.865a.457.457 0 00.206-.049l3.697-1.848a.462.462 0 10-.412-.827L10.5 13.99a.462.462 0 00.206.875h0zm3.491 2.823l-3.698 1.848a.463.463 0 10.412.827l3.697-1.849a.462.462 0 00-.411-.826zm2.469-3.491a.466.466 0 00-.62-.207l-7.394 3.697a.46.46 0 00.058.852.46.46 0 00.353-.025l7.395-3.697a.46.46 0 00.208-.62v0zm8.829.668a.457.457 0 00.206-.049l3.697-1.848a.463.463 0 10-.411-.827l-3.698 1.849a.462.462 0 00.206.875h0zm3.493 2.823l-3.698 1.848a.462.462 0 10.412.827l3.697-1.849a.463.463 0 00-.059-.851.46.46 0 00-.352.024zm-5.756.618a.461.461 0 00.62.208l7.394-3.698a.46.46 0 00.208-.619.466.466 0 00-.62-.207l-7.394 3.697v0a.461.461 0 00-.208.62z" fill="#fff" stroke="#27282C" stroke-width=".3"/></svg>