<svg width="175" height="34" viewBox="0 0 175 34" fill="none" xmlns="http://www.w3.org/2000/svg">
<path d="M8.39859 17.5531L3.54532 28.4657H-0.000183105L5.3326 16.7975C4.08296 16.1582 3.08034 15.2282 2.31021 13.9931C1.54008 12.758 1.16228 11.087 1.16228 8.95094C1.16228 7.4688 1.38024 6.16104 1.81616 5.02764C2.25208 3.89424 2.84784 2.96427 3.60344 2.2232C4.35904 1.48214 5.24542 0.915437 6.24804 0.552168C7.25066 0.174369 8.32594 0 9.43027 0H14.0075V28.4803H10.9415V17.5677H8.39859V17.5531ZM10.9415 2.54288H9.31403C8.70373 2.54288 8.10798 2.65913 7.52674 2.87709C6.94552 3.10958 6.42241 3.45832 5.97195 3.95236C5.5215 4.44641 5.15823 5.10029 4.88215 5.91401C4.60606 6.72774 4.46076 7.73036 4.46076 8.93641C4.46076 10.0843 4.59153 11.0434 4.83856 11.8135C5.08558 12.5836 5.43432 13.2084 5.87024 13.688C6.30616 14.1675 6.82927 14.5017 7.42503 14.7051C8.02079 14.9085 8.64561 15.0103 9.31403 15.0103H10.9415V2.54288Z" fill="white"/>
<path d="M28.7844 8.39901V28.466H25.7185V19.4714H21.0977V28.466H17.9881V8.39901H21.0977V16.9286H25.7185V8.39901H28.7844ZM44.7537 32.4038H41.9638V28.466H33.3616V32.4038H30.5717V25.9086H31.8068C32.2573 24.8478 32.6206 23.6708 32.8821 22.3776C33.1437 21.0844 33.3471 19.7621 33.4924 18.3962C33.6377 17.0303 33.7249 15.6353 33.7685 14.2113C33.8121 12.7873 33.8266 11.4214 33.8266 10.0846V8.39901H43.1408V25.9231H44.7392V32.4038H44.7537ZM40.0894 10.9419H36.6311V11.3052C36.6311 12.3659 36.6165 13.5284 36.5729 14.778C36.5293 16.0422 36.4421 17.3209 36.3114 18.6141C36.1806 19.9074 35.9917 21.1861 35.7592 22.4502C35.5267 23.7144 35.1925 24.8624 34.7566 25.9231H40.0894V10.9419ZM58.2528 27.1146C57.6134 27.6232 56.8869 28.0155 56.0587 28.3061C55.2304 28.5968 54.315 28.7421 53.3123 28.7421C51.2345 28.7421 49.607 27.9429 48.4155 26.33C47.224 24.717 46.6282 22.3631 46.6282 19.268C46.6282 17.6551 46.7444 16.1584 46.9624 14.8071C47.1949 13.4557 47.5436 12.2787 48.0377 11.2761C48.5317 10.2735 49.1566 9.50335 49.9267 8.95118C50.6968 8.39901 51.6123 8.1084 52.673 8.1084C53.5012 8.1084 54.2568 8.26824 54.9398 8.60244C55.6227 8.93665 56.2185 9.47429 56.698 10.2154C57.1775 10.9564 57.5408 11.9155 57.8169 13.107C58.0784 14.284 58.2092 15.7225 58.2092 17.4226V19.1372H49.8395C49.8395 21.4186 50.1446 23.1477 50.7695 24.3102C51.3943 25.4726 52.3243 26.0684 53.5739 26.0684C54.4457 26.0684 55.2304 25.9231 55.8988 25.6034C56.5818 25.2983 57.1194 24.9931 57.5117 24.7025L58.2528 27.1146ZM52.673 10.6658C51.714 10.6658 51.0456 11.2034 50.6387 12.2787C50.2318 13.354 49.9848 14.7925 49.8831 16.5944H55.027C55.027 15.7516 54.9834 14.9524 54.9107 14.2258C54.8381 13.4993 54.7073 12.86 54.5329 12.3368C54.3586 11.7992 54.1261 11.3923 53.8209 11.1017C53.5158 10.8111 53.1234 10.6658 52.673 10.6658ZM64.501 18.4688V28.466H61.3914V8.39901H64.501V17.6842L69.3252 8.39901H72.4784L67.4944 17.844L73.1904 28.4805H69.8047L64.501 18.4688ZM80.4703 28.7421C78.3198 28.7421 76.6342 27.8847 75.4136 26.1701C74.193 24.4555 73.5827 21.869 73.5827 18.4252C73.5827 16.8559 73.7281 15.4319 74.0477 14.1677C74.3529 12.889 74.8033 11.8137 75.3991 10.9274C75.9948 10.041 76.7359 9.34351 77.6223 8.84947C78.5087 8.35542 79.5403 8.1084 80.7028 8.1084C81.6037 8.1084 82.3302 8.21011 82.8969 8.41354C83.4491 8.61697 83.9577 8.864 84.4081 9.15461L83.9722 12.1044C83.5508 11.7266 83.0423 11.3923 82.4756 11.1017C81.9089 10.8111 81.2986 10.6658 80.6592 10.6658C79.5403 10.6658 78.6249 11.2906 77.9129 12.5548C77.2009 13.8045 76.8376 15.7225 76.8376 18.2799C76.8376 20.8083 77.1428 22.7699 77.7385 24.1503C78.3343 25.5308 79.2788 26.2137 80.543 26.2137C81.3131 26.2137 81.9815 26.0829 82.5337 25.8214C83.0858 25.5598 83.5508 25.2692 83.9286 24.935L84.6406 27.2454C84.103 27.6958 83.5072 28.0591 82.8534 28.3352C82.1995 28.6113 81.4003 28.7421 80.4703 28.7421Z" fill="white"/>
<path d="M105.768 28.4658H93.5768L93.3007 33.2029H91.7459V26.882H92.5887C93.2716 26.3008 93.8093 25.2546 94.1871 23.7724C94.5649 22.2903 94.8555 20.5175 95.0589 18.4687C95.2769 16.3472 95.4222 13.7317 95.4948 10.6366C95.5675 7.54157 95.6402 3.99607 95.6983 0.0146484H105.652V26.8965H107.599V33.2319H106.044L105.768 28.4658ZM103.647 1.58397H97.471C97.4129 5.23119 97.3402 8.44248 97.2385 11.1888C97.1368 13.9496 97.006 16.3617 96.8462 18.4396C96.6573 20.6047 96.3957 22.3775 96.0761 23.7724C95.7419 25.1674 95.3059 26.1991 94.7828 26.8675H103.661V1.58397H103.647Z" fill="white"/>
<path d="M111.424 18.7448C111.482 21.5202 111.859 23.6272 112.572 25.0802C113.284 26.5333 114.373 27.2598 115.841 27.2598C116.509 27.2598 117.091 27.1581 117.599 26.9402C118.108 26.7222 118.529 26.4607 118.878 26.17C119.27 25.8794 119.619 25.5016 119.91 25.0802L120.505 26.5914C120.186 27.0419 119.808 27.4342 119.357 27.7394C118.965 28.03 118.471 28.2915 117.89 28.5095C117.309 28.7274 116.611 28.8437 115.812 28.8437C113.69 28.8437 112.121 27.9283 111.118 26.0974C110.116 24.2665 109.607 21.7091 109.607 18.4106C109.607 16.7686 109.753 15.301 110.043 14.0078C110.334 12.7146 110.741 11.6248 111.264 10.7239C111.787 9.82294 112.397 9.14 113.109 8.67501C113.821 8.21003 114.606 7.97754 115.463 7.97754C116.335 7.97754 117.12 8.21003 117.817 8.66048C118.5 9.11094 119.081 9.79388 119.532 10.6948C119.982 11.5957 120.302 12.7146 120.491 14.0659C120.68 15.4028 120.694 16.9721 120.534 18.7448H111.424ZM115.449 9.59045C114.388 9.59045 113.472 10.2443 112.717 11.5521C111.961 12.8599 111.54 14.7634 111.467 17.2772H118.762C118.921 14.6036 118.66 12.6564 117.991 11.4359C117.323 10.2153 116.451 9.59045 115.449 9.59045Z" fill="white"/>
<path d="M132.767 18.8751H125.923V28.4799H124.049V8.39844H125.923V17.2767H132.767V8.39844H134.642V28.4654H132.767V18.8751Z" fill="white"/>
<path d="M139.06 8.39844H140.935V15.8382H142.402C144.32 15.8382 145.846 16.3613 146.98 17.393C148.128 18.4247 148.694 19.994 148.694 22.0864C148.694 24.2079 148.098 25.8063 146.907 26.867C145.715 27.9278 144.175 28.4654 142.286 28.4654H139.06V8.39844ZM140.935 17.3203V26.9978H142.126C143.536 26.9978 144.669 26.62 145.556 25.8644C146.442 25.1088 146.863 23.8737 146.863 22.1445C146.863 20.4444 146.471 19.2238 145.672 18.4537C144.873 17.6981 143.754 17.3203 142.33 17.3203H140.935Z" fill="white"/>
<path d="M153.749 9.98229V28.4654H151.918V8.39844H160.404V9.99682H153.749V9.98229Z" fill="white"/>
<path d="M172.625 14.4877C172.625 13.95 172.639 13.4705 172.668 13.0346C172.698 12.5987 172.741 12.1628 172.785 11.7414H172.668C172.538 12.1918 172.378 12.6277 172.189 13.0346C172 13.4415 171.797 13.8774 171.593 14.3278L165.069 28.4663H163.471V8.3993H165.229V22.3343C165.229 22.8719 165.214 23.3514 165.185 23.8019C165.156 24.2523 165.112 24.7028 165.069 25.1532H165.185C165.316 24.7028 165.476 24.2523 165.665 23.8164C165.854 23.3805 166.042 22.93 166.26 22.4796L172.785 8.38477H174.412V28.4517H172.625V14.4877Z" fill="white"/>
</svg>
