<svg width="146" height="146" fill="none" xmlns="http://www.w3.org/2000/svg"><g opacity=".7" fill="#fff"><path d="M146 73c0 40.317-32.683 73-73 73S0 113.317 0 73 32.683 0 73 0s73 32.683 73 73zM4.505 73c0 37.829 30.666 68.495 68.495 68.495 37.829 0 68.495-30.666 68.495-68.495 0-37.829-30.666-68.495-68.495-68.495C35.171 4.505 4.505 35.171 4.505 73z"/><path d="M85 63.608C93 68.227 97 70.536 97 74c0 3.464-4 5.773-12 10.392l-9 5.197c-8 4.618-12 6.928-15 5.196-3-1.732-3-6.351-3-15.589V68.804c0-9.238 0-13.857 3-15.589 3-1.732 7 .578 15 5.196l9 5.197z"/></g></svg>