<svg width="146" height="146" viewBox="0 0 146 146" fill="none" xmlns="http://www.w3.org/2000/svg">
<g opacity="0.7">
<path d="M146 73C146 113.317 113.317 146 73 146C32.6832 146 0 113.317 0 73C0 32.6832 32.6832 0 73 0C113.317 0 146 32.6832 146 73ZM4.50504 73C4.50504 110.829 35.1713 141.495 73 141.495C110.829 141.495 141.495 110.829 141.495 73C141.495 35.1713 110.829 4.50504 73 4.50504C35.1713 4.50504 4.50504 35.1713 4.50504 73Z" fill="white"/>
<path d="M85 63.6077C93 68.2265 97 70.5359 97 74C97 77.4641 93 79.7735 85 84.3923L76 89.5885C68 94.2073 64 96.5167 61 94.7846C58 93.0526 58 88.4338 58 79.1962V68.8038C58 59.5662 58 54.9474 61 53.2154C64 51.4833 68 53.7927 76 58.4115L85 63.6077Z" fill="white"/>
</g>
</svg>
