<svg width="27" height="26" viewBox="0 0 27 26" fill="none" xmlns="http://www.w3.org/2000/svg">
<path d="M13.5977 0C10.1498 0 6.84286 1.36953 4.40534 3.80768C1.96725 6.24552 0.597656 9.55227 0.597656 13C0.597656 16.4477 1.96719 19.7548 4.40534 22.1923C6.84318 24.6304 10.1499 26 13.5977 26C17.0454 26 20.3525 24.6305 22.79 22.1923C25.2281 19.7545 26.5977 16.4477 26.5977 13C26.5977 10.718 25.997 8.47618 24.8561 6.49994C23.7149 4.52382 22.0738 2.88274 20.0977 1.74159C18.1213 0.600691 15.8796 0 13.5977 0ZM13.4923 19.1733V19.1731C13.2143 19.2427 12.9202 19.1983 12.6752 19.0503C12.4301 18.902 12.2541 18.6621 12.1865 18.3836C12.1191 18.1055 12.1654 17.8116 12.3151 17.5675C12.4585 17.3126 12.6997 17.1273 12.9828 17.0545C13.2624 16.9903 13.556 17.0398 13.7992 17.192C14.0421 17.3442 14.2148 17.5866 14.2793 17.866C14.3487 18.141 14.3043 18.4324 14.1563 18.6743C14.0102 18.9223 13.7712 19.1017 13.4923 19.173L13.4923 19.1733ZM14.6905 13.2003C14.1636 13.3618 14.1741 13.4182 14.1741 14.0121L14.1739 14.0118C14.1641 14.2464 14.0602 14.4672 13.8856 14.6246C13.7111 14.7819 13.4808 14.8623 13.2462 14.8481C13.0002 14.8687 12.7571 14.7819 12.5794 14.6103C12.4017 14.4388 12.3068 14.1988 12.3188 13.9521C12.3188 13.9521 12.3433 12.6977 12.3433 12.3112C12.3433 12.0441 12.6948 11.9598 13.1585 11.8931C15.0135 11.5417 15.4316 9.53564 14.0685 9.01187C13.285 8.70968 12.5367 8.80453 11.4088 9.88681C11.2211 10.0875 10.9679 10.2145 10.6949 10.2454C10.4218 10.2765 10.1469 10.2091 9.91893 10.0554C9.51847 9.73216 9.72581 9.02947 9.98928 8.69914C11.7953 6.43284 14.7501 6.90365 15.639 7.53621V7.53646C16.4117 8.04673 16.9076 8.88321 16.9847 9.80621C17.0602 10.5515 16.872 11.2995 16.4529 11.9203C16.0336 12.5413 15.4098 12.9953 14.6902 13.2036L14.6905 13.2003Z" fill="#0038FF"/>
</svg>
