<svg width="19" height="20" viewBox="0 0 19 20" fill="none" xmlns="http://www.w3.org/2000/svg">
<path d="M7.7276 1.21858C9.01521 1.21741 10.2742 1.59815 11.3454 2.31266C12.4166 3.02716 13.2518 4.04332 13.7454 5.23258C14.2389 6.42184 14.3687 7.73077 14.1182 8.99379C13.8677 10.2568 13.2483 11.4172 12.3382 12.3281C11.4281 13.239 10.2684 13.8595 9.00557 14.1111C7.74279 14.3627 6.43374 14.2342 5.24403 13.7417C4.05431 13.2492 3.03739 12.415 2.32191 11.3444C1.60643 10.2739 1.22453 9.01521 1.22453 7.72759C1.23234 6.00473 1.9198 4.35457 3.1375 3.13575C4.35521 1.91693 6.00474 1.22796 7.7276 1.21858V1.21858ZM7.7276 0C6.19922 0 4.70517 0.453215 3.43438 1.30233C2.16358 2.15145 1.17311 3.35834 0.588232 4.77037C0.00334835 6.1824 -0.149684 7.73617 0.148487 9.23517C0.446658 10.7342 1.18264 12.1111 2.26336 13.1918C3.34409 14.2726 4.72101 15.0085 6.22002 15.3067C7.71902 15.6049 9.27279 15.4518 10.6848 14.867C12.0969 14.2821 13.3037 13.2916 14.1529 12.0208C15.002 10.75 15.4552 9.25597 15.4552 7.72759C15.4552 5.67811 14.641 3.71256 13.1918 2.26336C11.7426 0.814155 9.77708 0 7.7276 0Z" fill="white"/>
<path d="M18.8266 18.0054L14.4457 13.5947L13.6016 14.4329L17.9825 18.8435C18.0375 18.899 18.103 18.943 18.175 18.9732C18.2471 19.0033 18.3244 19.019 18.4025 19.0192C18.4806 19.0195 18.558 19.0044 18.6302 18.9748C18.7025 18.9451 18.7682 18.9016 18.8236 18.8465C18.8791 18.7915 18.9231 18.7261 18.9532 18.654C18.9834 18.582 18.999 18.5047 18.9993 18.4266C18.9996 18.3485 18.9845 18.2711 18.9549 18.1988C18.9252 18.1265 18.8816 18.0608 18.8266 18.0054Z" fill="white"/>
</svg>
