<svg width="78" height="75" fill="none" xmlns="http://www.w3.org/2000/svg"><path d="M55.318 11.453a7.82 7.82 0 015.354 2.214 7.646 7.646 0 012.334 5.354 1.608 1.608 0 001.432 1.492c.734 0 1.348-.59 1.348-1.324v-.011a7.445 7.445 0 017.134-7.664h.24a1.34 1.34 0 001.336-1.335 1.34 1.34 0 00-1.335-1.336h-.085a7.04 7.04 0 01-5.053-2.153 7.697 7.697 0 01-2.165-4.861v-.325a1.36 1.36 0 00-.06-.385A1.35 1.35 0 0064.498 0a1.34 1.34 0 00-1.335 1.335v.493a7.515 7.515 0 01-7.651 6.942h-.18a1.343 1.343 0 00-1.324 1.36c0 .71.589 1.299 1.31 1.323zm9.204-5.041a9.856 9.856 0 001.6 2.13 10.32 10.32 0 002.057 1.6 10.25 10.25 0 00-3.814 3.97 10.655 10.655 0 00-1.78-2.358 9.87 9.87 0 00-2.081-1.504 10.353 10.353 0 004.018-3.838zM43.191 50.398c-8.373-.301-14.918-7.328-14.617-15.689.3-8.373 7.327-14.918 15.688-14.617 8.362.301 14.906 7.315 14.63 15.676a1.341 1.341 0 001.287 1.383 1.32 1.32 0 001.384-1.251v-.024c.337-9.854-7.375-18.107-17.216-18.444-9.854-.337-18.107 7.375-18.444 17.216-.336 9.841 7.363 18.107 17.204 18.444h.048a1.34 1.34 0 001.36-1.312 1.349 1.349 0 00-1.324-1.382zM16.953 19.164a8.924 8.924 0 008.927-8.927 8.924 8.924 0 00-8.927-8.927 8.924 8.924 0 00-8.928 8.927 8.924 8.924 0 008.928 8.927zm0-15.171a6.239 6.239 0 016.244 6.244 6.239 6.239 0 01-6.244 6.244 6.239 6.239 0 01-6.245-6.244 6.246 6.246 0 016.245-6.244z" fill="#0038FF"/><path d="M62.525 40.579c-8.133-.29-14.954 6.075-15.23 14.209-.29 8.132 6.075 14.954 14.209 15.23h.517c8.132.145 14.834-6.34 14.979-14.473.132-8.12-6.34-14.822-14.473-14.966h-.002zm7.736 23.532l-.024-.011c-4.861 4.547-12.476 4.282-17.024-.566-4.547-4.86-4.282-12.476.566-17.023a12.064 12.064 0 018.23-3.249h.456c6.653.229 11.851 5.8 11.622 12.452a12.092 12.092 0 01-3.826 8.398zM11.598 32.555C5.198 32.555 0 37.74 0 44.153c0 6.4 5.198 11.598 11.598 11.598s11.598-5.198 11.598-11.598a11.59 11.59 0 00-11.598-11.598zm0 20.513a8.924 8.924 0 01-8.927-8.927 8.924 8.924 0 018.927-8.927 8.924 8.924 0 018.927 8.927 8.924 8.924 0 01-8.927 8.927zM37.03 65.05l-.072-.011a4.904 4.904 0 01-3.464-1.432 5.45 5.45 0 01-1.6-3.489v-.24a1.514 1.514 0 00-1.36-1.456 1.348 1.348 0 00-1.323 1.348v.36c-.109 2.984-2.852 4.849-5.402 4.885h-.169a1.343 1.343 0 00-1.323 1.36 1.33 1.33 0 001.335 1.323h.024a5.28 5.28 0 013.766 1.575 5.337 5.337 0 011.648 3.778 1.53 1.53 0 001.408 1.456 1.348 1.348 0 001.323-1.348 5.23 5.23 0 015.053-5.402h.169a1.34 1.34 0 001.335-1.335c0-.734-.614-1.371-1.348-1.371zm-6.617 3.658a8.105 8.105 0 00-1.119-1.36 8.871 8.871 0 00-1.118-.89 8.146 8.146 0 002.37-2.214c.313.481.673.914 1.07 1.323.326.325.674.626 1.048.89a7.864 7.864 0 00-2.25 2.25zm13.812-45.08c-.011 0-.011 0 0 0-5.979-.216-10.984 4.777-11.212 11.105a1.351 1.351 0 001.287 1.395h.06a1.34 1.34 0 001.335-1.3c.169-4.848 3.959-8.625 8.434-8.517a1.32 1.32 0 001.383-1.251v-.024a1.354 1.354 0 00-1.287-1.408z" fill="#0038FF"/><path d="M61.61 45.487c-4.68-.024-8.482 3.742-8.517 8.422a1.341 1.341 0 001.287 1.384h.048a1.34 1.34 0 001.336-1.3c0-3.188 2.562-5.799 5.75-5.846a1.317 1.317 0 001.384-1.24v-.06a1.328 1.328 0 00-1.288-1.36zm-51.346-8.024c-3.188 0-5.8 2.996-5.8 6.689A1.34 1.34 0 005.8 45.487a1.34 1.34 0 001.335-1.335c0-2.214 1.396-4.019 3.128-4.019a1.34 1.34 0 001.335-1.335 1.338 1.338 0 00-1.334-1.335z" fill="#0038FF"/></svg>