<svg width="76" height="59" fill="none" xmlns="http://www.w3.org/2000/svg"><path d="M38.246 58.118c-3.797 0-6.885-3.085-6.885-6.877s3.088-6.877 6.885-6.877c3.8 0 6.89 3.085 6.89 6.877s-3.09 6.877-6.89 6.877zm0-11.089a4.22 4.22 0 00-4.218 4.213 4.22 4.22 0 004.218 4.213c2.33 0 4.224-1.89 4.224-4.213a4.223 4.223 0 00-4.224-4.213zm-17.261-8.213a1.33 1.33 0 01-1.071-2.123c4.284-5.798 11.139-9.26 18.334-9.26 6.976 0 13.471 3.132 17.822 8.592a1.334 1.334 0 01-2.087 1.659 20.016 20.016 0 00-15.735-7.586c-6.447 0-12.348 2.98-16.19 8.178a1.33 1.33 0 01-1.073.54z" fill="#0038FF"/><path d="M10.471 28.637a1.332 1.332 0 01-1.027-2.18c7.135-8.62 17.633-13.563 28.802-13.563A37.331 37.331 0 0166.448 25.75a1.331 1.331 0 01-.134 1.88 1.336 1.336 0 01-1.88-.134 34.66 34.66 0 00-26.187-11.938c-10.37 0-20.12 4.59-26.748 12.596a1.33 1.33 0 01-1.028.483z" fill="#0038FF"/><path d="M1.333 19.486A1.33 1.33 0 01.326 17.28 50.221 50.221 0 0138.247 0 50.354 50.354 0 0175.66 16.689a1.331 1.331 0 11-1.984 1.778A47.68 47.68 0 0038.248 2.664 47.552 47.552 0 002.342 19.028a1.34 1.34 0 01-1.01.458z" fill="#0038FF"/></svg>