<svg width="44" height="62" fill="none" xmlns="http://www.w3.org/2000/svg"><path d="M43.244.083a1.182 1.182 0 00-1.336.339c-.016.018-1.604 1.84-8.025 5.3-6.516 3.515-24.742 14.953-25.577 15.48C2.45 25.417-.686 32.478.126 39.63a19.861 19.861 0 006.78 12.84l-5.12 7.644a1.22 1.22 0 00.312 1.675c.204.142.436.21.666.21.378 0 .75-.184.98-.526l5.064-7.562c3.096 2.072 6.77 3.277 10.664 3.277.746 0 1.5-.043 2.258-.132 6.878-.811 12.832-5.374 15.597-11.933.06-.063.121-.141.17-.23 3.427-5.666 5.664-21.019 5.816-25.306.134-4.085.68-18.201.686-18.343a1.205 1.205 0 00-.755-1.162zM2.479 39.354c-.713-6.276 2.044-12.476 7.132-16.14.189-.119 18.932-11.883 25.38-15.36a81.665 81.665 0 002.888-1.63L8.241 50.478a17.46 17.46 0 01-5.762-11.124zm33.069 4.157a1.527 1.527 0 00-.142.158 1.205 1.205 0 00-.167.29c-2.392 5.88-7.672 9.982-13.783 10.701-4.129.487-8.09-.573-11.324-2.727L41.48 5.13a3498.25 3498.25 0 00-.533 14.374c-.17 4.707-2.421 18.859-5.398 24.008z" fill="#0038FF"/></svg>