<svg width="62" height="62" fill="none" xmlns="http://www.w3.org/2000/svg"><path d="M62 62H.805C.335 62 0 61.69 0 61.256s.336-.744.805-.744h59.652v-8.866c0-2.17-.604-4.216-1.745-5.89-.67-.992-1.476-1.798-2.348-2.48-4.093-3.038-14.762-8.37-14.83-8.432a.697.697 0 01-.335-.992c.201-.372.671-.496 1.074-.31.403.248 10.87 5.518 15.097 8.618 1.074.744 1.946 1.736 2.684 2.852 1.275 1.922 1.945 4.216 1.945 6.635L62 62z" fill="#0038FF"/><path d="M.805 62C.335 62 0 61.69 0 61.256v-9.61c0-2.418.671-4.712 1.946-6.634.738-1.116 1.677-2.046 2.683-2.853 4.228-3.1 14.628-8.37 15.098-8.617.402-.187.872-.062 1.073.31a.697.697 0 01-.335.992c-.134.062-10.803 5.393-14.83 8.432a10.896 10.896 0 00-2.348 2.48c-1.14 1.673-1.744 3.72-1.744 5.89v9.61a.73.73 0 01-.738.743z" fill="#0038FF"/><path d="M31 40.238c-8.858 0-16.037-8.184-16.037-18.166 0-2.356.402-4.65 1.14-6.82.135-.372.604-.62 1.007-.497.402.125.671.558.537.93-.738 2.046-1.074 4.154-1.074 6.386 0 9.238 6.442 16.74 14.426 16.74 7.985 0 14.427-7.502 14.427-16.74 0-2.232-.336-4.34-1.074-6.386-.134-.372.067-.806.537-.93.403-.124.872.062 1.006.497.805 2.17 1.141 4.464 1.141 6.82 0 9.981-7.178 18.166-16.036 18.166zM44.42 13.02H17.58V5.022C17.58 2.294 19.996 0 23.015 0h15.97c3.02 0 5.435 2.294 5.435 5.022v7.998zm-25.297-1.426H42.81V5.022c0-1.984-1.745-3.596-3.892-3.596H23.015c-2.147 0-3.892 1.612-3.892 3.596v6.572zm6.845 32.426c0 .616-.54 1.115-1.207 1.115-.668 0-1.208-.5-1.208-1.115 0-.617.54-1.117 1.208-1.117.667 0 1.207.5 1.207 1.117zm0 6.2c0 .616-.54 1.116-1.207 1.116-.668 0-1.208-.5-1.208-1.116 0-.617.54-1.117 1.208-1.117.667 0 1.207.5 1.207 1.117zm0 5.951c0 .617-.54 1.117-1.207 1.117-.668 0-1.208-.5-1.208-1.117 0-.616.54-1.115 1.208-1.115.667 0 1.207.5 1.207 1.115zM38.449 44.02c0 .616-.54 1.115-1.208 1.115-.667 0-1.208-.5-1.208-1.115 0-.617.54-1.117 1.208-1.117.667 0 1.208.5 1.208 1.117zm0 6.2c0 .616-.54 1.116-1.208 1.116-.667 0-1.208-.5-1.208-1.116 0-.617.54-1.117 1.208-1.117.667 0 1.208.5 1.208 1.117zm0 5.951c0 .617-.54 1.117-1.208 1.117-.667 0-1.208-.5-1.208-1.117 0-.616.54-1.115 1.208-1.115.667 0 1.208.5 1.208 1.115z" fill="#0038FF"/><path d="M31 62c-.47 0-.805-.31-.805-.744V39.494c0-.434.336-.744.805-.744.47 0 .805.31.805.744v21.762c0 .434-.335.744-.805.744z" fill="#0038FF"/></svg>