<svg width="74" height="74" fill="none" xmlns="http://www.w3.org/2000/svg"><path d="M66.903 50.458L50.168 60.37l-6.374-4.028h8.014a4.625 4.625 0 100-9.248H38.043a12.774 12.774 0 00-4.634.84l-10.705 4.86V51.72a1.26 1.26 0 00-1.261-1.261h-9.25a1.261 1.261 0 00-1.261 1.261v21.02A1.26 1.26 0 0012.193 74h9.25a1.261 1.261 0 001.261-1.26v-1.262h26.144a7.838 7.838 0 004.608-1.488l17.878-12.805a4.061 4.061 0 00-4.431-6.726zm-46.721 21.02h-6.728V52.98h6.728v18.497zM69.87 55.174L51.985 67.946a5.34 5.34 0 01-3.137 1.01H22.704V55.56l11.672-5.271a10.2 10.2 0 013.667-.673h13.765a2.103 2.103 0 110 4.204h-12.37a1.262 1.262 0 00-.672 2.329l10.705 6.726a1.262 1.262 0 001.32 0l17.407-10.333a1.54 1.54 0 011.681 2.573l-.008.059zm2.869-14.805h-2.944A32.41 32.41 0 0041.5 9.109a5.465 5.465 0 10-8.149 0 32.41 32.41 0 00-28.305 31.26H1.261a1.262 1.262 0 000 2.522H72.74a1.262 1.262 0 000-2.522zM37.42 2.533a2.943 2.943 0 110 5.887 2.943 2.943 0 010-5.887zm0 8.829a29.88 29.88 0 0129.853 29.007H7.568a29.87 29.87 0 019.042-20.557 29.88 29.88 0 0120.81-8.45z" fill="#0038FF"/><path d="M30.644 17.34a24.774 24.774 0 00-15.81 13.595 1.26 1.26 0 102.297 1.026A22.255 22.255 0 0131.333 19.77a1.263 1.263 0 10-.69-2.43z" fill="#0038FF"/></svg>