<svg width="104" height="64" fill="none" xmlns="http://www.w3.org/2000/svg"><path d="M100.36 37.74a1.733 1.733 0 00-1.236-.912l-17.776-3.23-15.73-2.855h-.001A60.426 60.426 0 0056.16 30h-2.577a59.78 59.78 0 00-20.626 3.652l-10.956 4.014-.225.043L14.8 39.08C9.2 40.176 4.136 43.079.414 47.326a1.674 1.674 0 00-.265 1.791l1.024 2.267a12.27 12.27 0 01.562 4.088c-.008.455.172.894.498 1.22.325.324.771.507 1.235.507H9.29a10.243 10.243 0 005.636 5.954 10.546 10.546 0 008.285 0c2.64-1.13 4.683-3.287 5.636-5.954h46.308a10.243 10.243 0 005.636 5.954 10.546 10.546 0 008.285 0c2.64-1.13 4.683-3.287 5.636-5.954h2.356c.342 0 .677-.1.962-.285l5.199-3.4c.482-.316.772-.847.772-1.415v-6.8a1.682 1.682 0 00-.173-.76l-3.467-6.8zm-88.746 8.99H8.118v3.4h1.257a9.943 9.943 0 00-.708 3.669H5.144a11.911 11.911 0 00-.801-3.792l-.57-1.262a22.245 22.245 0 0111.705-6.336l6.465-1.272 2.324.956v2.89a10.474 10.474 0 00-6.637-1.28 10.379 10.379 0 00-6.016 3.031v-.004zm14.246 8.43c-.48 2.3-2.134 4.195-4.38 5.013a7.045 7.045 0 01-6.653-.995 6.74 6.74 0 01-2.657-6.065c.24-2.336 1.694-4.384 3.842-5.419a7.053 7.053 0 016.723.334C24.766 49.27 26.001 51.452 26 53.8c0 .457-.047.912-.14 1.36zm30.3-21.76c2.968.002 5.929.234 8.858.696l3.813.692-12.785 1.283-.415-2.67h.53zm7.298 12.302l6.008-.257-1.087 1.598-5.365.252.444-1.593zm-29.294-8.866a56.205 56.205 0 0117.969-3.4l.456 2.983-23.787 2.38 5.362-1.963zM33.008 47l26.81-1.142-.448 1.608L32.852 48.7l.163 3.4 25.397-1.19-.804 2.89H29.465a9.994 9.994 0 00-1.733-5.627v-5.845l34.015-3.412-.973 3.494-27.917 1.19.15 3.4zm58.716 8.16h.001c-.48 2.3-2.135 4.195-4.38 5.013a7.045 7.045 0 01-6.653-.995 6.74 6.74 0 01-2.658-6.065c.241-2.336 1.694-4.384 3.843-5.419a7.053 7.053 0 016.723.333c2.031 1.243 3.266 3.425 3.265 5.773 0 .456-.047.912-.14 1.36zm-1.12-9.9h.002a10.55 10.55 0 00-7.115-1.565 10.444 10.444 0 00-6.41 3.405 10.07 10.07 0 00-2.549 6.7h-13.33l.85-3.06 7.361-.34a1.741 1.741 0 001.362-.755l3.466-5.1c.362-.533.389-1.22.068-1.778a1.707 1.707 0 00-1.584-.867l-8.32.354 1.04-3.711 15.506-1.556 16.683 3.03.888 1.74-7.917 3.504zm9.928 5.93l-3.987 2.61h-1.213c0-2.162-.707-4.268-2.014-6.01l6.76-2.988.459.9-.005 5.489zM86.823 20.425L52.808.168a1.19 1.19 0 00-1.219 0L17.577 20.425a1.177 1.177 0 00-.409 1.619c.336.56 1.064.742 1.627.407L52.197 2.556l33.407 19.895a1.185 1.185 0 001.627-.407 1.177 1.177 0 00-.41-1.619z" fill="#0038FF"/></svg>