<svg width="32" height="33" viewBox="0 0 32 33" fill="none" xmlns="http://www.w3.org/2000/svg">
<path d="M31.0216 17.6612H28.2468V7.83066C28.2448 6.02729 27.531 4.29785 26.2608 3.01798C24.9903 1.73788 23.266 1.01128 21.4629 0.99577C20.7494 0.338021 19.8091 -0.0187395 18.8387 0.000759165C17.8681 0.0202962 16.9431 0.414435 16.2564 1.10051C16.1032 1.2537 16.1032 1.5023 16.2564 1.65548L21.0181 6.42025C21.0911 6.49471 21.1913 6.53662 21.2955 6.53662C21.3997 6.53662 21.5 6.49472 21.573 6.42025C22.1657 5.82592 22.5428 5.05092 22.6447 4.21763C22.7467 3.38462 22.5671 2.5414 22.1351 1.8219C23.6038 2.00086 24.9561 2.71072 25.9377 3.81751C26.9194 4.92436 27.4622 6.35197 27.4644 7.8314V17.6619H12.1388C12.1385 17.3397 12.0105 17.0305 11.7826 16.8026C11.5547 16.5744 11.2457 16.4461 10.9235 16.4458H6.16662C5.84411 16.4461 5.5352 16.5744 5.3073 16.8026C5.07937 17.0305 4.95138 17.3397 4.9511 17.6619H0.391024C0.17498 17.6619 0 17.8369 0 18.0526C0 18.2687 0.174988 18.4437 0.391024 18.4437H1.39705V23.6692C1.39875 25.3522 2.06839 26.9656 3.25848 28.1557C4.44857 29.3457 6.06194 30.0154 7.74498 30.0171H9.88164L8.58625 31.7477V31.748C8.46224 31.9207 8.49904 32.1611 8.66949 32.2888C8.83967 32.4162 9.08091 32.3842 9.21172 32.2163L10.7973 30.0986V30.0989C10.8163 30.0746 10.8316 30.0479 10.8435 30.0196H20.5711C20.5827 30.0479 20.5983 30.0746 20.6169 30.0989L22.2026 32.2166V32.2163C22.264 32.3018 22.3569 32.3587 22.4608 32.3749C22.5644 32.3907 22.6703 32.3641 22.7544 32.3012C22.8385 32.2384 22.8937 32.1441 22.9076 32.0402C22.9215 31.936 22.8929 31.8306 22.828 31.748L21.5326 30.0174H23.6693V30.0171C25.3524 30.0154 26.966 29.3457 28.156 28.1557C29.3461 26.9656 30.0154 25.3522 30.0175 23.6692V18.4428H31.0235C31.2392 18.4428 31.4142 18.2678 31.4142 18.0521C31.4142 17.836 31.2392 17.661 31.0235 17.661L31.0216 17.6612ZM21.2766 5.57273L17.1016 1.39857C17.8723 0.808496 18.8823 0.630949 19.8079 0.923168C20.7338 1.21537 21.4589 1.9405 21.7512 2.86615C22.0437 3.79179 21.8664 4.80173 21.2766 5.57276L21.2766 5.57273ZM5.73714 17.6612C5.73714 17.4216 5.9311 17.2271 6.17065 17.2268H10.9275C11.1671 17.2277 11.3607 17.4219 11.3613 17.6612V23.731C11.3607 23.9702 11.1671 24.1642 10.9275 24.1648H6.17065C5.93139 24.1648 5.73714 23.9705 5.73714 23.731V17.6612ZM29.237 23.6684C29.2353 25.1441 28.6483 26.5591 27.6046 27.6024C26.5612 28.6461 25.1463 29.2331 23.6706 29.2348H7.74478C6.26905 29.2331 4.85441 28.6461 3.81077 27.6024C2.76734 26.559 2.18042 25.1441 2.17868 23.6684V18.4429H4.9535V23.731C4.95379 24.0532 5.08205 24.3621 5.3097 24.5901C5.53764 24.8177 5.84655 24.946 6.1688 24.9463H10.9257C11.2476 24.9454 11.5557 24.8169 11.783 24.5892C12.0104 24.3613 12.1384 24.0529 12.1387 23.731V18.4429H29.2337L29.237 23.6684Z" fill="white"/>
</svg>
