<svg width="32" height="32" viewBox="0 0 32 32" fill="none" xmlns="http://www.w3.org/2000/svg">
<path d="M30.9135 1H1.58654C1.26264 1 1 1.26264 1 1.58654V30.9135C1 31.069 1.0618 31.2183 1.17177 31.3282C1.28175 31.4382 1.431 31.5 1.58654 31.5H18.942C19.0976 31.5 19.2466 31.4382 19.3568 31.3282C19.4668 31.2183 19.5286 31.069 19.5286 30.9135V20.8954C19.5286 20.5715 19.2659 20.3088 18.942 20.3088C18.6179 20.3088 18.3555 20.5715 18.3555 20.8954V30.3269H2.17308V21.4819H13.253C13.4085 21.4819 13.5575 21.4201 13.6677 21.3102C13.7777 21.2002 13.8395 21.0509 13.8395 20.8954V15.3937C13.8395 15.0696 13.5769 14.8072 13.253 14.8072C12.9288 14.8072 12.6664 15.0696 12.6664 15.3937V20.3088H2.17308V10.3846H13.253C13.4085 10.3846 13.5575 10.3228 13.6677 10.2128C13.7777 10.1029 13.8395 9.95361 13.8395 9.79808V2.17308H20.1856V6.23199C20.1856 6.55589 20.4483 6.81853 20.7722 6.81853C21.0963 6.81853 21.3587 6.55589 21.3587 6.23199V2.17308H30.3271V10.9008H20.7722C20.4483 10.9008 20.1856 11.1634 20.1856 11.4873C20.1856 11.8112 20.4483 12.0738 20.7722 12.0738H30.3271V20.2854H24.0687C23.7448 20.2854 23.4821 20.548 23.4821 20.8719C23.4821 21.1958 23.7448 21.4585 24.0687 21.4585H30.3271V30.3269H25.0482C24.7243 30.3269 24.4617 30.5896 24.4617 30.9135C24.4617 31.2374 24.7243 31.5 25.0482 31.5H30.9136C31.0691 31.5 31.2184 31.4382 31.3284 31.3282C31.4383 31.2183 31.5001 31.069 31.5001 30.9135V1.58654C31.5001 1.431 31.4383 1.28175 31.3284 1.17177C31.2184 1.0618 31.069 1 30.9135 1ZM12.6664 9.21154H2.17308V2.17308H12.6664V9.21154Z" fill="white" stroke="#27282C" stroke-width="0.5"/>
</svg>
