<svg width="30" height="30" viewBox="0 0 30 30" fill="none" xmlns="http://www.w3.org/2000/svg">
<path d="M0.37512 25.7307H3.05912L3.0586 29.6244C3.0586 29.8316 3.22653 29.9995 3.4337 29.9995C3.64087 29.9995 3.8088 29.8316 3.8088 29.6244L3.80906 25.7307H26.1907L26.1902 29.6244C26.1902 29.8316 26.3581 29.9995 26.5653 29.9995C26.7724 29.9995 26.9404 29.8316 26.9404 29.6244L26.9406 25.7307H29.6244C29.8315 25.7307 29.9995 25.5628 29.9995 25.3556V18.1109C29.9995 17.0078 29.706 15.9644 29.1886 15.0607V2.548C29.1886 1.14312 28.0458 0 26.6409 0H3.35859C1.95371 0 0.81059 1.14305 0.81059 2.548L0.810852 14.9341V14.9344C0.293196 15.8386 0 16.8836 0 17.9877V25.3557C0 25.5626 0.167929 25.7305 0.375098 25.7305L0.37512 25.7307ZM0.749956 24.9808V20.8557H29.2493V24.9808H0.749956ZM1.56081 2.54824C1.56081 1.55686 2.36724 0.750157 3.35863 0.750157H26.6409C27.6323 0.750157 28.4387 1.55659 28.4387 2.54824V14.0263C27.6846 13.1804 26.6988 12.5401 25.563 12.2144V8.03524C25.563 7.10144 24.8031 6.34155 23.8693 6.34155H16.3186C15.7832 6.34155 15.3105 6.59632 15 6.98554C14.6896 6.59632 14.2169 6.34155 13.6815 6.34155H6.13075C5.19669 6.34155 4.43679 7.10144 4.43679 8.03524V12.0906C3.30131 12.4137 2.31541 13.0546 1.56108 13.901L1.56081 2.54824ZM14.6246 11.1141C10.82 11.1063 7.61625 11.4856 5.18617 11.925V8.03537C5.18617 7.51511 5.60966 7.0916 6.12995 7.0916H13.6807C14.2012 7.0916 14.6244 7.51509 14.6244 8.03537L14.6246 11.1141ZM24.813 12.0472C21.3965 11.4307 18.2295 11.1672 15.3746 11.1236V8.03544C15.3746 7.51517 15.7978 7.09167 16.3183 7.09167H23.8691C24.3893 7.09167 24.8128 7.51489 24.8128 8.03544L24.813 12.0472ZM5.13394 12.6959C9.46376 11.8944 16.3978 11.2637 24.8411 12.8128H24.8414C27.3954 13.281 29.2491 15.5094 29.2491 18.111V20.106H0.74975V17.9878C0.74975 15.3916 2.5933 13.1659 5.13374 12.6959L5.13394 12.6959Z" fill="white"/>
</svg>
