<svg width="47" height="30" viewBox="0 0 47 30" fill="none" xmlns="http://www.w3.org/2000/svg">
<path d="M35.6962 28.9733C35.2792 28.9836 34.9133 28.6983 34.8218 28.2915C34.0651 24.8782 31.7883 21.9983 28.6413 20.4751C25.4944 18.9514 21.8236 18.9514 18.6767 20.4751C15.5298 21.9983 13.253 24.8782 12.4962 28.2915C12.4511 28.5239 12.3145 28.7281 12.1164 28.8574C11.9182 28.9867 11.6761 29.0306 11.4456 28.9787C11.2145 28.9263 11.0151 28.783 10.892 28.5812C10.7682 28.3793 10.7322 28.136 10.7914 27.9068C11.6664 23.9745 14.2914 20.658 17.9181 18.9037C21.5442 17.1495 25.7735 17.1495 29.3998 18.9037C33.0266 20.658 35.6517 23.9744 36.5266 27.9068C36.6498 28.3671 36.3815 28.8415 35.9229 28.9732L35.6962 28.9733Z" fill="white" stroke="#27282C" stroke-width="0.933333"/>
<path d="M23.6836 14.4968C21.894 14.4968 20.1775 13.7858 18.9117 12.52C17.6465 11.2547 16.9355 9.53819 16.9355 7.74807C16.9355 5.95842 17.6465 4.24198 18.9117 2.97681C20.1776 1.71096 21.894 1 23.6836 1C25.4733 1 27.1897 1.71097 28.4555 2.97681C29.7207 4.24206 30.4317 5.95857 30.4317 7.74807C30.4317 9.53835 29.7207 11.2548 28.4555 12.52C27.1897 13.7858 25.4733 14.4968 23.6836 14.4968ZM23.6836 2.74797C22.3574 2.74797 21.0854 3.2748 20.1483 4.2126C19.2105 5.1504 18.6837 6.42231 18.6837 7.74788C18.6837 9.0741 19.2105 10.3461 20.1483 11.2838C21.0855 12.2216 22.3574 12.7484 23.6836 12.7484C25.0098 12.7484 26.2819 12.2216 27.2189 11.2838C28.1567 10.346 28.6835 9.07408 28.6835 7.74788C28.6811 6.42288 28.1537 5.15215 27.2165 4.21494C26.2793 3.27775 25.0091 2.75032 23.6835 2.74788L23.6836 2.74797Z" fill="white" stroke="#27282C" stroke-width="0.933333"/>
<path d="M1.8771 25.3986H1.68503C1.21491 25.2937 0.917341 24.8291 1.0204 24.3584C1.49601 22.2066 2.68876 20.281 4.40208 18.8956C6.11602 17.5109 8.24909 16.7493 10.4527 16.7358C11.8344 16.734 13.2008 17.0322 14.4563 17.6096C14.6886 17.6913 14.8758 17.8663 14.9721 18.0926C15.0685 18.3194 15.0648 18.5755 14.9624 18.7993C14.8599 19.023 14.6679 19.1932 14.4331 19.2682C14.199 19.3426 13.9435 19.3151 13.7307 19.1919C12.702 18.7218 11.5837 18.4798 10.4526 18.484C8.65332 18.4944 6.91003 19.1139 5.50687 20.2407C4.10372 21.3676 3.12327 22.9359 2.72522 24.6907C2.64657 25.0981 2.2923 25.3938 1.87705 25.3987L1.8771 25.3986Z" fill="white" stroke="#27282C" stroke-width="0.933333"/>
<path d="M10.8798 13.8599C9.53707 13.8483 8.2542 13.305 7.31216 12.3483C6.36947 11.3922 5.8451 10.1008 5.85362 8.75805C5.86215 7.41537 6.403 6.13125 7.35727 5.18671C8.31154 4.2422 9.60116 3.71476 10.9439 3.72026C12.2866 3.72575 13.5726 4.26355 14.5188 5.21537C15.4658 6.1672 15.9963 7.45614 15.9938 8.79889C15.9914 10.1495 15.4505 11.4433 14.4902 12.3933C13.5304 13.3439 12.2304 13.8714 10.8798 13.8598L10.8798 13.8599ZM10.8798 5.47699C9.99866 5.47699 9.1541 5.82699 8.53096 6.45016C7.9084 7.07272 7.5584 7.91783 7.5584 8.79895C7.5584 9.68007 7.9084 10.5246 8.53096 11.1477C9.15413 11.7703 9.99863 12.1203 10.8798 12.1203C11.7608 12.1203 12.606 11.7703 13.2285 11.1477C13.8517 10.5246 14.2017 9.68007 14.2017 8.79895C14.2017 7.91783 13.8517 7.07267 13.2285 6.45016C12.606 5.82699 11.7609 5.47699 10.8798 5.47699Z" fill="white" stroke="#27282C" stroke-width="0.933333"/>
<path d="M45.491 25.3985C45.0745 25.4083 44.7081 25.1229 44.6166 24.7168C44.2245 22.9614 43.2502 21.3901 41.852 20.2589C40.4538 19.1272 38.7141 18.5015 36.9154 18.4839C35.7843 18.4796 34.6661 18.7217 33.6374 19.1918C33.4246 19.315 33.1691 19.3424 32.9349 19.268C32.7002 19.193 32.5081 19.0229 32.4057 18.7991C32.3032 18.5754 32.2996 18.3193 32.3959 18.0924C32.4923 17.8662 32.6795 17.6912 32.9118 17.6095C34.1673 17.0321 35.5337 16.7339 36.9153 16.7357C39.1166 16.7479 41.2477 17.5071 42.961 18.8888C44.6745 20.2705 45.8683 22.1924 46.3475 24.3406C46.4506 24.8113 46.153 25.2766 45.6829 25.3809L45.491 25.3985Z" fill="white" stroke="#27282C" stroke-width="0.933333"/>
<path d="M36.4867 13.8598C35.1409 13.8623 33.8494 13.3293 32.897 12.3793C31.944 11.4287 31.4086 10.1386 31.408 8.7927C31.4068 7.44697 31.941 6.15606 32.8928 5.20496C33.844 4.25313 35.1348 3.719 36.4805 3.72022C37.8262 3.72083 39.1165 4.25619 40.0671 5.20924C41.0171 6.16168 41.5501 7.45313 41.5476 8.79885C41.5458 10.1403 41.0117 11.4263 40.0629 12.375C39.1141 13.3238 37.8282 13.8573 36.4867 13.8598L36.4867 13.8598ZM36.4867 5.47695C35.605 5.47451 34.7587 5.82267 34.1343 6.44463C33.5093 7.06658 33.1574 7.91108 33.1562 8.79279C33.1544 9.67449 33.5032 10.5202 34.1257 11.1445C34.7483 11.7683 35.5934 12.1195 36.4751 12.1202C37.3562 12.1214 38.2019 11.7714 38.8258 11.1482C39.449 10.5256 39.7996 9.67992 39.7996 8.79878C39.7996 7.91891 39.4508 7.07563 38.8301 6.45312C38.2087 5.82995 37.3661 5.47934 36.4868 5.4769L36.4867 5.47695Z" fill="white" stroke="#27282C" stroke-width="0.933333"/>
</svg>
