<svg width="32" height="31" viewBox="0 0 32 31" fill="none" xmlns="http://www.w3.org/2000/svg">
<path d="M31.3226 10.7201L30.7953 10.1927C29.4184 8.82313 27.1992 8.82313 25.8222 10.1927C25.6464 10.3612 25.6464 10.6395 25.8149 10.8153C25.9833 10.991 26.2617 10.991 26.4374 10.8226L26.4448 10.8153C27.4775 9.78993 29.14 9.78993 30.1727 10.8153L30.7001 11.3426C30.8758 11.5111 31.1541 11.5111 31.3226 11.3353C31.4837 11.1668 31.4837 10.8958 31.3226 10.7201L31.3226 10.7201Z" fill="white" stroke="#27282C" stroke-width="0.3"/>
<path d="M21.7196 1.12544C21.5438 0.956986 21.2655 0.956986 21.097 1.13276C20.9286 1.30121 20.9286 1.57953 21.097 1.74798L21.6244 2.27532C22.6497 3.30802 22.6497 4.97058 21.6244 6.00328C21.4559 6.17173 21.4559 6.45005 21.6244 6.62583C21.7928 6.79428 22.0711 6.79428 22.2469 6.62583C23.6165 5.24893 23.6165 3.02972 22.2469 1.65276L21.7196 1.12544Z" fill="white" stroke="#27282C" stroke-width="0.3"/>
<path d="M25.4322 7.62903L28.8086 4.25263C28.9844 4.08417 28.9844 3.80586 28.8159 3.63008C28.6475 3.4543 28.3692 3.4543 28.1934 3.62275L24.8097 7.00646C24.6412 7.17491 24.6412 7.45323 24.8097 7.62901C24.9781 7.80478 25.2565 7.80478 25.4322 7.62901L25.4322 7.62903Z" fill="white" stroke="#27282C" stroke-width="0.3"/>
<path d="M11.4662 8.83772C11.6346 9.00617 11.913 9.00617 12.0887 8.83772L12.6673 8.25912L13.2459 8.83772C13.4217 9.00617 13.7 9.00617 13.8685 8.83039C14.0369 8.66194 14.0369 8.38362 13.8685 8.21517L13.2899 7.63657L13.8685 7.05797C14.0369 6.88219 14.0369 6.60388 13.8612 6.43542C13.6927 6.26697 13.4144 6.26697 13.2459 6.43542L12.6673 7.01402L12.0887 6.43542C11.913 6.26697 11.6346 6.26697 11.4662 6.44275C11.2977 6.6112 11.2977 6.88952 11.4662 7.05797L12.0448 7.63657L11.4662 8.21517C11.2977 8.39095 11.2977 8.66926 11.4662 8.83772H11.4662Z" fill="white" stroke="#27282C" stroke-width="0.3"/>
<path d="M25.7391 17.9266L26.3177 17.348C26.4861 17.1796 26.4861 16.9012 26.3177 16.7255C26.1492 16.557 25.8709 16.557 25.6951 16.7255L25.1165 17.3041L24.5379 16.7255C24.3622 16.557 24.0839 16.557 23.9154 16.7328C23.7469 16.9012 23.7469 17.1796 23.9154 17.348L24.494 17.9266L23.9154 18.5052C23.7469 18.681 23.7469 18.9593 23.9227 19.1278C24.0912 19.2962 24.3695 19.2962 24.5379 19.1278L25.1165 18.5492L25.6951 19.1278C25.8636 19.2962 26.1419 19.2962 26.3177 19.1278C26.4861 18.9593 26.4861 18.681 26.3177 18.5052L25.7391 17.9266Z" fill="white" stroke="#27282C" stroke-width="0.3"/>
<path d="M22.335 11.7747L19.9327 9.37243C19.7643 9.20398 19.486 9.20398 19.3102 9.37243L17.5377 11.1522L16.1462 12.5437C15.3992 13.2908 14.9524 13.5032 13.9563 13.9646L9.15901 16.2424C7.73082 16.9236 6.42712 17.8391 5.30656 18.967L2.93353 21.3473L1.46142 22.8195C0.846194 23.442 0.846194 24.4454 1.46142 25.0679L6.61756 30.2241C7.23279 30.8613 8.25086 30.8759 8.88801 30.2607L12.7185 26.4302C13.839 25.3097 14.7619 24.006 15.4431 22.5778L17.7209 17.7805C18.1896 16.7844 18.4313 16.3084 19.1418 15.5906L22.3424 12.39C22.5109 12.2215 22.5109 11.9432 22.3351 11.7748L22.335 11.7747ZM8.27281 29.6237C7.97985 29.902 7.51841 29.8947 7.24011 29.6091L2.07667 24.4456C1.80567 24.1673 1.80567 23.7205 2.07667 23.4349L3.24122 22.2703L9.43007 28.4592L8.27281 29.6237ZM10.0526 27.844L3.8637 21.6551L5.61418 19.9046L11.7811 26.1227L10.0526 27.844ZM18.5193 14.9683C17.7064 15.7813 17.4134 16.3672 16.9227 17.3999L14.6449 22.1972C14.0663 23.4057 13.3119 24.5115 12.4037 25.493L6.25147 19.2895C7.22558 18.374 8.33884 17.6196 9.54732 17.041L14.3446 14.7632C15.3626 14.2872 15.9266 14.0162 16.7762 13.1666L17.8602 12.0826L19.6399 13.8623L18.5193 14.9683ZM20.2478 13.2399L18.4681 11.4601L19.6252 10.3029L21.405 12.0827L20.2478 13.2399Z" fill="white" stroke="#27282C" stroke-width="0.3"/>
<path d="M6.00288 12.2655C6.77189 12.2655 7.39444 11.643 7.39444 10.874C7.39444 10.105 6.77189 9.48242 6.00288 9.48242C5.23388 9.48242 4.61133 10.105 4.61133 10.874C4.61133 11.643 5.23388 12.2655 6.00288 12.2655ZM6.00288 10.3612C6.28852 10.3612 6.51557 10.5883 6.51557 10.8739C6.51557 11.1596 6.28852 11.3866 6.00288 11.3866C5.71725 11.3866 5.4902 11.1596 5.4902 10.8739C5.4902 10.5883 5.72457 10.3612 6.00288 10.3612Z" fill="white" stroke="#27282C" stroke-width="0.3"/>
<path d="M21.4052 20.2627C20.6362 20.2627 20.0137 20.8852 20.0137 21.6543C20.0137 22.4233 20.6362 23.0458 21.4052 23.0458C22.1742 23.0458 22.7968 22.4233 22.7968 21.6543C22.7968 20.8852 22.1742 20.2627 21.4052 20.2627ZM21.4052 22.167C21.1196 22.167 20.8925 21.9399 20.8925 21.6543C20.8925 21.3687 21.1196 21.1416 21.4052 21.1416C21.6909 21.1416 21.9179 21.3687 21.9179 21.6543C21.9179 21.9399 21.6909 22.167 21.4052 22.167Z" fill="white" stroke="#27282C" stroke-width="0.3"/>
<path d="M27.2509 11.7676C26.4819 11.7676 25.8594 12.3901 25.8594 13.1591C25.8594 13.9281 26.4819 14.5507 27.2509 14.5507C28.0199 14.5507 28.6425 13.9281 28.6425 13.1591C28.6425 12.3901 28.0199 11.7676 27.2509 11.7676ZM27.2509 13.6719C26.9653 13.6719 26.7383 13.4448 26.7383 13.1592C26.7383 12.8736 26.9653 12.6465 27.2509 12.6465C27.5366 12.6465 27.7636 12.8736 27.7636 13.1592C27.7636 13.4448 27.5366 13.6719 27.2509 13.6719Z" fill="white" stroke="#27282C" stroke-width="0.3"/>
<path d="M17.333 4.01102C18.102 4.01102 18.7245 3.38847 18.7245 2.61946C18.7245 1.85045 18.102 1.22791 17.333 1.22791C16.564 1.22791 15.9414 1.85045 15.9414 2.61946C15.9487 3.38846 16.5713 4.01102 17.333 4.01102ZM17.333 2.10673C17.6186 2.10673 17.8456 2.33377 17.8456 2.61941C17.8456 2.90505 17.6186 3.13209 17.333 3.13209C17.0473 3.13209 16.8203 2.90505 16.8203 2.61941C16.8276 2.3411 17.0547 2.10673 17.333 2.10673Z" fill="white" stroke="#27282C" stroke-width="0.3"/>
</svg>
