<svg width="35" height="33" viewBox="0 0 35 33" fill="none" xmlns="http://www.w3.org/2000/svg">
<path d="M34.1288 11.8867H24.3797V3.56521C24.3797 3.40249 24.2466 3.26934 24.0839 3.26934H20.748V0.295867C20.748 0.133143 20.6148 0 20.4521 0H13.9874C13.8247 0 13.6916 0.133143 13.6916 0.295867V3.26934H10.3557C10.1929 3.26934 10.0598 3.40249 10.0598 3.56521V11.8867H0.295867C0.133143 11.8867 0 12.0198 0 12.1825V31.9241C0 32.0868 0.133143 32.22 0.295867 32.22H34.1356C34.2983 32.22 34.4314 32.0868 34.4314 31.9241V12.1825C34.424 12.0198 34.2915 11.8867 34.1288 11.8867ZM14.2838 0.591666H20.1567V3.26928H14.2838V0.591666ZM10.0529 31.6282H0.585173V12.4784H10.0529V31.6282ZM10.652 3.86141H13.9806H13.9879H20.4527H20.46H23.7886V12.1159C23.7812 12.1381 23.7812 12.1603 23.7812 12.1825V31.6285H20.5414V22.3975C20.5414 22.2348 20.4083 22.1016 20.2456 22.1016H14.2025C14.0398 22.1016 13.9067 22.2348 13.9067 22.3975V31.6285H10.6595V3.86171L10.652 3.86141ZM14.4909 31.6282V22.6934H19.9497V31.6282H14.4909ZM33.8335 31.6282H24.3807V12.4784H33.8409V31.6282H33.8335Z" fill="white"/>
</svg>
