<svg width="32" height="32" viewBox="0 0 32 32" fill="none" xmlns="http://www.w3.org/2000/svg">
<path d="M2.40625 23.5V6.625C2.66511 6.625 2.875 6.41511 2.875 6.15625C2.875 5.89739 2.66511 5.6875 2.40625 5.6875H1.46875C1.20989 5.6875 1 5.89739 1 6.15625C1 6.41511 1.20989 6.625 1.46875 6.625V23.5C1.20989 23.5 1 23.7099 1 23.9688C1 24.2276 1.20989 24.4375 1.46875 24.4375H2.40625C2.66511 24.4375 2.875 24.2276 2.875 23.9688C2.875 23.7099 2.66511 23.5 2.40625 23.5Z" fill="white" stroke="#27282C" stroke-width="0.2"/>
<path d="M16.469 29.125C16.2836 29.1261 16.1162 29.2363 16.0419 29.4063L4.28131 25.0469V24.9063C4.28131 24.6474 4.07142 24.4375 3.81256 24.4375C3.5537 24.4375 3.34381 24.6474 3.34381 24.9063V25.8438C3.34653 26.0635 3.50139 26.2518 3.71651 26.2968C3.93163 26.3418 4.14906 26.2315 4.23967 26.0313L16.0002 30.3906V30.5313C16.0002 30.7901 16.2101 31 16.469 31C16.7278 31 16.9377 30.7901 16.9377 30.5313V29.5938C16.9377 29.4695 16.8883 29.3502 16.8004 29.2623C16.7126 29.1744 16.5933 29.125 16.469 29.125H16.469Z" fill="white" stroke="#27282C" stroke-width="0.2"/>
<path d="M30.5314 21.625C30.6557 21.625 30.7749 21.5756 30.8628 21.4877C30.9507 21.3998 31.0001 21.2805 31.0001 21.1562V6.15621C31.0001 5.95804 30.8756 5.78121 30.6889 5.71466L17.5639 1.02715C17.462 0.990949 17.3507 0.990949 17.2488 1.02715L4.12374 5.71466C3.93707 5.78121 3.81256 5.95804 3.81256 6.15621V23.0312C3.81256 23.2294 3.93707 23.4062 4.12374 23.4728L17.2488 28.1603C17.3507 28.1967 17.462 28.1967 17.5639 28.1603L30.6889 23.4728C30.8756 23.4062 31.0003 23.2294 31.0003 23.0312C31.0003 22.8331 30.8756 22.6562 30.6889 22.5897L17.8752 18.0156V3.34342C17.8752 3.08457 17.6653 2.87467 17.4064 2.87467C17.1476 2.87467 16.9377 3.08457 16.9377 3.34342V18.0156L4.75014 22.366V6.48684L17.4064 1.96674L30.0627 6.48684V21.1563C30.0627 21.2806 30.1121 21.3999 30.2 21.4878C30.2878 21.5757 30.4071 21.6251 30.5314 21.6251L30.5314 21.625ZM17.4063 27.2211L12.2379 25.3752L17.4063 23.5292L22.5748 25.3752L17.4063 27.2211ZM23.9688 24.8773L18.8004 23.0314L23.9688 21.1855L29.1373 23.0314L23.9688 24.8773ZM17.4063 18.8419L22.5748 20.6879L17.4063 22.5338L12.2379 20.6879L17.4063 18.8419ZM10.8438 21.1857L16.0122 23.0316L10.8438 24.8775L5.67503 23.0316L10.8438 21.1857Z" fill="white" stroke="#27282C" stroke-width="0.2"/>
</svg>
