<svg width="40" height="32" viewBox="0 0 40 32" fill="none" xmlns="http://www.w3.org/2000/svg">
<path d="M38.436 1H1.46238C1.20735 1.00062 1.00062 1.20705 1 1.46207V31.0419C1.00062 31.297 1.20736 31.5034 1.46238 31.504H38.436C38.691 31.5034 38.8978 31.2969 38.8984 31.0419V1.46207C38.8978 1.20704 38.691 1.00062 38.436 1ZM37.9739 30.5791H1.92414V1.92462H37.9739V30.5791Z" fill="white" stroke="#27282C" stroke-width="0.3"/>
<path d="M5.15934 27.806H34.7392C34.9942 27.8057 35.2006 27.599 35.2013 27.344V5.15946C35.2006 4.90443 34.9942 4.6977 34.7392 4.69739H5.15934C4.90431 4.6977 4.69788 4.90444 4.69727 5.15946V27.344C4.69788 27.599 4.90432 27.8057 5.15934 27.806ZM34.2765 26.8816H20.4112V5.62169H34.2765V26.8816ZM5.62204 5.62169H19.4874V26.8816L5.62204 26.8819V5.62169Z" fill="white" stroke="#27282C" stroke-width="0.3"/>
<path d="M10.7058 14.8653C10.7773 14.8653 10.8478 14.8486 10.9116 14.8164L14.6091 12.9678C14.719 12.9133 14.8029 12.8174 14.8419 12.7013C14.8812 12.5849 14.8722 12.4581 14.8177 12.3482C14.7629 12.2383 14.667 12.1548 14.5506 12.1161C14.4343 12.0771 14.3071 12.086 14.1975 12.1411L10.5 13.9897C10.3081 14.0854 10.2075 14.3002 10.2564 14.5091C10.3053 14.7177 10.4916 14.8653 10.7058 14.8653L10.7058 14.8653Z" fill="white" stroke="#27282C" stroke-width="0.3"/>
<path d="M14.1967 17.6875L10.4992 19.5361C10.3893 19.5906 10.3058 19.6865 10.2665 19.8026C10.2275 19.9189 10.2361 20.0458 10.2909 20.1557C10.3454 20.2656 10.4416 20.3491 10.558 20.3878C10.6744 20.4268 10.8013 20.4178 10.9108 20.3628L14.6084 18.5142C14.8361 18.4003 14.9287 18.1233 14.8151 17.8955C14.7015 17.6674 14.4248 17.5742 14.1967 17.6875Z" fill="white" stroke="#27282C" stroke-width="0.3"/>
<path d="M16.6656 14.1975C16.5504 13.9709 16.2747 13.8784 16.0463 13.9898L8.65155 17.6873C8.54168 17.7415 8.45781 17.8374 8.41881 17.9538C8.37951 18.0702 8.38817 18.1971 8.44295 18.3069C8.49774 18.4168 8.59368 18.5004 8.71005 18.5391C8.82642 18.5781 8.95331 18.5691 9.06318 18.514L16.4579 14.8165C16.5678 14.7623 16.6513 14.6664 16.6903 14.55C16.7293 14.4339 16.7204 14.307 16.6656 14.1975V14.1975Z" fill="white" stroke="#27282C" stroke-width="0.3"/>
<path d="M25.495 14.8653C25.5664 14.8653 25.637 14.8486 25.7008 14.8164L29.3983 12.9678C29.5082 12.9133 29.5917 12.8174 29.631 12.7013C29.67 12.5849 29.6614 12.4581 29.6066 12.3482C29.5521 12.2383 29.4559 12.1548 29.3395 12.1161C29.2231 12.0771 29.0962 12.086 28.9867 12.1411L25.2891 13.9897C25.0973 14.0854 24.9964 14.3002 25.0456 14.5091C25.0945 14.7177 25.2805 14.8653 25.495 14.8653L25.495 14.8653Z" fill="white" stroke="#27282C" stroke-width="0.3"/>
<path d="M28.9877 17.6875L25.2901 19.5361C25.1803 19.5906 25.0964 19.6865 25.0574 19.8026C25.0181 19.919 25.0271 20.0459 25.0815 20.1557C25.1363 20.2656 25.2323 20.3492 25.3486 20.3878C25.465 20.4268 25.5922 20.4179 25.7018 20.3628L29.3993 18.5142C29.5091 18.4597 29.5927 18.3638 29.632 18.2477C29.671 18.1313 29.6623 18.0044 29.6076 17.8946C29.5531 17.7847 29.4568 17.7011 29.3405 17.6625C29.2241 17.6235 29.0972 17.6324 28.9877 17.6875Z" fill="white" stroke="#27282C" stroke-width="0.3"/>
<path d="M23.2323 18.3063C23.2867 18.4161 23.3824 18.5 23.4987 18.539C23.6151 18.5777 23.742 18.569 23.8516 18.5139L31.2463 14.8164C31.3562 14.7622 31.4397 14.6663 31.4787 14.5499C31.5177 14.4339 31.5087 14.307 31.454 14.1971C31.3388 13.9706 31.0631 13.8783 30.8347 13.9898L23.4399 17.6873V17.687C23.3301 17.7414 23.2465 17.8374 23.2075 17.9537C23.1685 18.0698 23.1775 18.1967 23.2323 18.3063Z" fill="white" stroke="#27282C" stroke-width="0.3"/>
</svg>
